ply
format ascii 1.0
comment VCGLIB generated
element vertex 744
property float x
property float y
property float z
element face 492
property list uchar int vertex_indices
end_header
-0.0664489 0.000388228 0.019171 
-0.0664489 0.000388228 0.024171 
-0.0665 0 0.019171 
-0.0665 0 0.024171 
-0.0665 0 0.019171 
-0.0665 0 0.024171 
-0.0664489 -0.000388228 0.019171 
-0.0664489 -0.000388228 0.024171 
-0.0664489 -0.000388228 0.019171 
-0.0664489 -0.000388228 0.024171 
-0.066299 -0.00075 0.019171 
-0.066299 -0.00075 0.024171 
-0.066299 -0.00075 0.019171 
-0.066299 -0.00075 0.024171 
-0.0660607 -0.00106066 0.019171 
-0.0660607 -0.00106066 0.024171 
-0.0660607 -0.00106066 0.019171 
-0.0660607 -0.00106066 0.024171 
-0.06575 -0.00129904 0.019171 
-0.06575 -0.00129904 0.024171 
-0.06575 -0.00129904 0.019171 
-0.06575 -0.00129904 0.024171 
-0.0653882 -0.00144889 0.019171 
-0.0653882 -0.00144889 0.024171 
-0.0653882 -0.00144889 0.019171 
-0.0653882 -0.00144889 0.024171 
-0.065 -0.0015 0.019171 
-0.065 -0.0015 0.024171 
-0.065 -0.0015 0.019171 
-0.065 -0.0015 0.024171 
-0.0646118 -0.00144889 0.019171 
-0.0646118 -0.00144889 0.024171 
-0.0646118 -0.00144889 0.019171 
-0.0646118 -0.00144889 0.024171 
-0.06425 -0.00129904 0.019171 
-0.06425 -0.00129904 0.024171 
-0.06425 -0.00129904 0.019171 
-0.06425 -0.00129904 0.024171 
-0.0639393 -0.00106066 0.019171 
-0.0639393 -0.00106066 0.024171 
-0.0639393 -0.00106066 0.019171 
-0.0639393 -0.00106066 0.024171 
-0.063701 -0.00075 0.019171 
-0.063701 -0.00075 0.024171 
-0.063701 -0.00075 0.019171 
-0.063701 -0.00075 0.024171 
-0.0635511 -0.000388228 0.019171 
-0.0635511 -0.000388228 0.024171 
-0.0635511 -0.000388228 0.019171 
-0.0635511 -0.000388228 0.024171 
-0.0635 0 0.019171 
-0.0635 0 0.024171 
-0.0635 0 0.019171 
-0.0635 0 0.024171 
-0.0635511 0.000388228 0.019171 
-0.0635511 0.000388228 0.024171 
-0.0635511 0.000388228 0.019171 
-0.0635511 0.000388228 0.024171 
-0.063701 0.00075 0.019171 
-0.063701 0.00075 0.024171 
-0.063701 0.00075 0.019171 
-0.063701 0.00075 0.024171 
-0.0639393 0.00106066 0.019171 
-0.0639393 0.00106066 0.024171 
-0.0639393 0.00106066 0.019171 
-0.0639393 0.00106066 0.024171 
-0.06425 0.00129904 0.019171 
-0.06425 0.00129904 0.024171 
-0.06425 0.00129904 0.019171 
-0.06425 0.00129904 0.024171 
-0.0646118 0.00144889 0.019171 
-0.0646118 0.00144889 0.024171 
-0.0646118 0.00144889 0.019171 
-0.0646118 0.00144889 0.024171 
-0.065 0.0015 0.019171 
-0.065 0.0015 0.024171 
-0.065 0.0015 0.019171 
-0.065 0.0015 0.024171 
-0.0653882 0.00144889 0.019171 
-0.0653882 0.00144889 0.024171 
-0.0653882 0.00144889 0.019171 
-0.0653882 0.00144889 0.024171 
-0.06575 0.00129904 0.019171 
-0.06575 0.00129904 0.024171 
-0.06575 0.00129904 0.019171 
-0.06575 0.00129904 0.024171 
-0.0660607 0.00106066 0.019171 
-0.0660607 0.00106066 0.024171 
-0.0660607 0.00106066 0.019171 
-0.0660607 0.00106066 0.024171 
-0.066299 0.00075 0.019171 
-0.066299 0.00075 0.024171 
-0.066299 0.00075 0.019171 
-0.066299 0.00075 0.024171 
-0.0664489 0.000388228 0.019171 
-0.0664489 0.000388228 0.024171 
-0.0664489 -0.000388228 0.019171 
-0.0635511 -0.000388228 0.019171 
-0.0665 0 0.019171 
-0.0635 0 0.019171 
-0.0664489 0.000388228 0.019171 
-0.0635511 0.000388228 0.019171 
-0.066299 0.00075 0.019171 
-0.063701 0.00075 0.019171 
-0.0660607 0.00106066 0.019171 
-0.0639393 0.00106066 0.019171 
-0.06575 0.00129904 0.019171 
-0.06425 0.00129904 0.019171 
-0.0653882 0.00144889 0.019171 
-0.0646118 0.00144889 0.019171 
-0.065 0.0015 0.019171 
-0.063701 -0.00075 0.019171 
-0.066299 -0.00075 0.019171 
-0.0639393 -0.00106066 0.019171 
-0.0660607 -0.00106066 0.019171 
-0.06425 -0.00129904 0.019171 
-0.06575 -0.00129904 0.019171 
-0.0646118 -0.00144889 0.019171 
-0.0653882 -0.00144889 0.019171 
-0.065 -0.0015 0.019171 
0.0635511 0.000388228 0.019171 
0.0635511 0.000388228 0.024171 
0.0635 0 0.019171 
0.0635 0 0.024171 
0.0635 0 0.019171 
0.0635 0 0.024171 
0.0635511 -0.000388228 0.019171 
0.0635511 -0.000388228 0.024171 
0.0635511 -0.000388228 0.019171 
0.0635511 -0.000388228 0.024171 
0.063701 -0.00075 0.019171 
0.063701 -0.00075 0.024171 
0.063701 -0.00075 0.019171 
0.063701 -0.00075 0.024171 
0.0639393 -0.00106066 0.019171 
0.0639393 -0.00106066 0.024171 
0.0639393 -0.00106066 0.019171 
0.0639393 -0.00106066 0.024171 
0.06425 -0.00129904 0.019171 
0.06425 -0.00129904 0.024171 
0.06425 -0.00129904 0.019171 
0.06425 -0.00129904 0.024171 
0.0646118 -0.00144889 0.019171 
0.0646118 -0.00144889 0.024171 
0.0646118 -0.00144889 0.019171 
0.0646118 -0.00144889 0.024171 
0.065 -0.0015 0.019171 
0.065 -0.0015 0.024171 
0.065 -0.0015 0.019171 
0.065 -0.0015 0.024171 
0.0653882 -0.00144889 0.019171 
0.0653882 -0.00144889 0.024171 
0.0653882 -0.00144889 0.019171 
0.0653882 -0.00144889 0.024171 
0.06575 -0.00129904 0.019171 
0.06575 -0.00129904 0.024171 
0.06575 -0.00129904 0.019171 
0.06575 -0.00129904 0.024171 
0.0660607 -0.00106066 0.019171 
0.0660607 -0.00106066 0.024171 
0.0660607 -0.00106066 0.019171 
0.0660607 -0.00106066 0.024171 
0.066299 -0.00075 0.019171 
0.066299 -0.00075 0.024171 
0.066299 -0.00075 0.019171 
0.066299 -0.00075 0.024171 
0.0664489 -0.000388228 0.019171 
0.0664489 -0.000388228 0.024171 
0.0664489 -0.000388228 0.019171 
0.0664489 -0.000388228 0.024171 
0.0665 0 0.019171 
0.0665 0 0.024171 
0.0665 0 0.019171 
0.0665 0 0.024171 
0.0664489 0.000388228 0.019171 
0.0664489 0.000388228 0.024171 
0.0664489 0.000388228 0.019171 
0.0664489 0.000388228 0.024171 
0.066299 0.00075 0.019171 
0.066299 0.00075 0.024171 
0.066299 0.00075 0.019171 
0.066299 0.00075 0.024171 
0.0660607 0.00106066 0.019171 
0.0660607 0.00106066 0.024171 
0.0660607 0.00106066 0.019171 
0.0660607 0.00106066 0.024171 
0.06575 0.00129904 0.019171 
0.06575 0.00129904 0.024171 
0.06575 0.00129904 0.019171 
0.06575 0.00129904 0.024171 
0.0653882 0.00144889 0.019171 
0.0653882 0.00144889 0.024171 
0.0653882 0.00144889 0.019171 
0.0653882 0.00144889 0.024171 
0.065 0.0015 0.019171 
0.065 0.0015 0.024171 
0.065 0.0015 0.019171 
0.065 0.0015 0.024171 
0.0646118 0.00144889 0.019171 
0.0646118 0.00144889 0.024171 
0.0646118 0.00144889 0.019171 
0.0646118 0.00144889 0.024171 
0.06425 0.00129904 0.019171 
0.06425 0.00129904 0.024171 
0.06425 0.00129904 0.019171 
0.06425 0.00129904 0.024171 
0.0639393 0.00106066 0.019171 
0.0639393 0.00106066 0.024171 
0.0639393 0.00106066 0.019171 
0.0639393 0.00106066 0.024171 
0.063701 0.00075 0.019171 
0.063701 0.00075 0.024171 
0.063701 0.00075 0.019171 
0.063701 0.00075 0.024171 
0.0635511 0.000388228 0.019171 
0.0635511 0.000388228 0.024171 
0.0635511 -0.000388228 0.019171 
0.0664489 -0.000388228 0.019171 
0.0635 0 0.019171 
0.0665 0 0.019171 
0.0635511 0.000388228 0.019171 
0.0664489 0.000388228 0.019171 
0.063701 0.00075 0.019171 
0.066299 0.00075 0.019171 
0.0639393 0.00106066 0.019171 
0.0660607 0.00106066 0.019171 
0.06425 0.00129904 0.019171 
0.06575 0.00129904 0.019171 
0.0646118 0.00144889 0.019171 
0.0653882 0.00144889 0.019171 
0.065 0.0015 0.019171 
0.066299 -0.00075 0.019171 
0.063701 -0.00075 0.019171 
0.0660607 -0.00106066 0.019171 
0.0639393 -0.00106066 0.019171 
0.06575 -0.00129904 0.019171 
0.06425 -0.00129904 0.019171 
0.0653882 -0.00144889 0.019171 
0.0646118 -0.00144889 0.019171 
0.065 -0.0015 0.019171 
-0.058 0.01 -0.0256027 
-0.058 0.01 -0.025829 
-0.058 0.007 -0.0256027 
-0.058 -0.01 -0.025829 
-0.058 -0.007 -0.0256027 
-0.058 -0.01 -0.0256027 
-0.058 -0.007 0.014171 
-0.058 0.007 0.014171 
-0.058 -0.007 0.014171 
-0.075 -0.007 0.014171 
-0.058 0.007 0.014171 
-0.075 0.007 0.014171 
-0.058 -0.007 -0.0256027 
-0.059856 -0.007 -0.0252305 
-0.058 -0.007 0.014171 
-0.0616685 -0.007 -0.0246845 
-0.0634212 -0.007 -0.0239696 
-0.0650985 -0.007 -0.0230922 
-0.0666854 -0.007 -0.0220602 
-0.0681675 -0.007 -0.0208828 
-0.0695317 -0.007 -0.0195705 
-0.0707658 -0.007 -0.0181351 
-0.075 -0.007 -0.00582899 
-0.0718586 -0.007 -0.0165895 
-0.0728004 -0.007 -0.0149475 
-0.0735827 -0.007 -0.0132238 
-0.0741986 -0.007 -0.0114338 
-0.0746425 -0.007 -0.00959367 
-0.0749104 -0.007 -0.0077198 
-0.075 -0.007 0.014171 
-0.058 -0.007 -0.0256027 
-0.058 -0.01 -0.0256027 
-0.059856 -0.007 -0.0252305 
-0.059856 -0.01 -0.0252305 
-0.059856 -0.007 -0.0252305 
-0.059856 -0.01 -0.0252305 
-0.0616685 -0.007 -0.0246845 
-0.0616685 -0.01 -0.0246845 
-0.0616685 -0.007 -0.0246845 
-0.0616685 -0.01 -0.0246845 
-0.0634212 -0.007 -0.0239696 
-0.0634212 -0.01 -0.0239696 
-0.0634212 -0.007 -0.0239696 
-0.0634212 -0.01 -0.0239696 
-0.0650985 -0.007 -0.0230922 
-0.0650985 -0.01 -0.0230922 
-0.0650985 -0.007 -0.0230922 
-0.0650985 -0.01 -0.0230922 
-0.0666854 -0.007 -0.0220602 
-0.0666854 -0.01 -0.0220602 
-0.0666854 -0.007 -0.0220602 
-0.0666854 -0.01 -0.0220602 
-0.0681675 -0.007 -0.0208828 
-0.0681675 -0.01 -0.0208828 
-0.0681675 -0.007 -0.0208828 
-0.0681675 -0.01 -0.0208828 
-0.0695317 -0.007 -0.0195705 
-0.0695317 -0.01 -0.0195705 
-0.0695317 -0.007 -0.0195705 
-0.0695317 -0.01 -0.0195705 
-0.0707658 -0.007 -0.0181351 
-0.0707658 -0.01 -0.0181351 
-0.0707658 -0.007 -0.0181351 
-0.0707658 -0.01 -0.0181351 
-0.0718586 -0.007 -0.0165895 
-0.0718586 -0.01 -0.0165895 
-0.0718586 -0.007 -0.0165895 
-0.0718586 -0.01 -0.0165895 
-0.0728004 -0.007 -0.0149475 
-0.0728004 -0.01 -0.0149475 
-0.0728004 -0.007 -0.0149475 
-0.0728004 -0.01 -0.0149475 
-0.0735827 -0.007 -0.0132238 
-0.0735827 -0.01 -0.0132238 
-0.0735827 -0.007 -0.0132238 
-0.0735827 -0.01 -0.0132238 
-0.0741986 -0.007 -0.0114338 
-0.0741986 -0.01 -0.0114338 
-0.0741986 -0.007 -0.0114338 
-0.0741986 -0.01 -0.0114338 
-0.0746425 -0.007 -0.00959367 
-0.0746425 -0.01 -0.00959367 
-0.0746425 -0.007 -0.00959367 
-0.0746425 -0.01 -0.00959367 
-0.0749104 -0.007 -0.0077198 
-0.0749104 -0.01 -0.0077198 
-0.0749104 -0.007 -0.0077198 
-0.0749104 -0.01 -0.0077198 
-0.075 -0.007 -0.00582899 
-0.075 -0.01 -0.00582899 
-0.059856 0.01 -0.0252305 
-0.0616685 0.01 -0.0246845 
-0.058 0.01 -0.0256027 
-0.0634212 0.01 -0.0239696 
-0.0650985 0.01 -0.0230922 
-0.0666854 0.01 -0.0220602 
-0.0681675 0.01 -0.0208828 
-0.055 0.01 -0.00582899 
-0.0695317 0.01 -0.0195705 
-0.0707658 0.01 -0.0181351 
-0.0718586 0.01 -0.0165895 
-0.0728004 0.01 -0.0149475 
-0.0735827 0.01 -0.0132238 
-0.0741986 0.01 -0.0114338 
-0.0746425 0.01 -0.00959367 
-0.0749104 0.01 -0.0077198 
-0.075 0.01 -0.00582899 
-0.055 0.01 0.024171 
-0.075 0.01 0.024171 
0.055 0.01 -0.00582899 
0.058 0.01 -0.0256027 
-0.058 0.01 -0.025829 
0.058 0.01 -0.025829 
0.055 0.01 0.024171 
0.075 0.01 0.024171 
0.075 0.01 -0.00582899 
0.0749104 0.01 -0.0077198 
0.0746425 0.01 -0.00959367 
0.0741986 0.01 -0.0114338 
0.0735827 0.01 -0.0132238 
0.0728004 0.01 -0.0149475 
0.0718586 0.01 -0.0165895 
0.0707658 0.01 -0.0181351 
0.0695317 0.01 -0.0195705 
0.0681675 0.01 -0.0208828 
0.0666854 0.01 -0.0220602 
0.0650985 0.01 -0.0230922 
0.0634212 0.01 -0.0239696 
0.0616685 0.01 -0.0246845 
0.059856 0.01 -0.0252305 
0.058 -0.01 -0.0256027 
0.058 -0.01 -0.025829 
0.058 -0.007 -0.0256027 
0.058 0.01 -0.025829 
0.058 0.007 -0.0256027 
0.058 0.01 -0.0256027 
0.058 0.007 0.014171 
0.058 -0.007 0.014171 
0.058 0.007 0.014171 
0.075 0.007 0.014171 
0.058 -0.007 0.014171 
0.075 -0.007 0.014171 
0.058 0.007 -0.0256027 
0.059856 0.007 -0.0252305 
0.058 0.007 0.014171 
0.0616685 0.007 -0.0246845 
0.0634212 0.007 -0.0239696 
0.0650985 0.007 -0.0230922 
0.0666854 0.007 -0.0220602 
0.0681675 0.007 -0.0208828 
0.0695317 0.007 -0.0195705 
0.0707658 0.007 -0.0181351 
0.075 0.007 -0.00582899 
0.0718586 0.007 -0.0165895 
0.0728004 0.007 -0.0149475 
0.0735827 0.007 -0.0132238 
0.0741986 0.007 -0.0114338 
0.0746425 0.007 -0.00959367 
0.0749104 0.007 -0.0077198 
0.075 0.007 0.014171 
0.058 0.007 -0.0256027 
0.058 0.01 -0.0256027 
0.059856 0.007 -0.0252305 
0.059856 0.01 -0.0252305 
0.059856 0.007 -0.0252305 
0.059856 0.01 -0.0252305 
0.0616685 0.007 -0.0246845 
0.0616685 0.01 -0.0246845 
0.0616685 0.007 -0.0246845 
0.0616685 0.01 -0.0246845 
0.0634212 0.007 -0.0239696 
0.0634212 0.01 -0.0239696 
0.0634212 0.007 -0.0239696 
0.0634212 0.01 -0.0239696 
0.0650985 0.007 -0.0230922 
0.0650985 0.01 -0.0230922 
0.0650985 0.007 -0.0230922 
0.0650985 0.01 -0.0230922 
0.0666854 0.007 -0.0220602 
0.0666854 0.01 -0.0220602 
0.0666854 0.007 -0.0220602 
0.0666854 0.01 -0.0220602 
0.0681675 0.007 -0.0208828 
0.0681675 0.01 -0.0208828 
0.0681675 0.007 -0.0208828 
0.0681675 0.01 -0.0208828 
0.0695317 0.007 -0.0195705 
0.0695317 0.01 -0.0195705 
0.0695317 0.007 -0.0195705 
0.0695317 0.01 -0.0195705 
0.0707658 0.007 -0.0181351 
0.0707658 0.01 -0.0181351 
0.0707658 0.007 -0.0181351 
0.0707658 0.01 -0.0181351 
0.0718586 0.007 -0.0165895 
0.0718586 0.01 -0.0165895 
0.0718586 0.007 -0.0165895 
0.0718586 0.01 -0.0165895 
0.0728004 0.007 -0.0149475 
0.0728004 0.01 -0.0149475 
0.0728004 0.007 -0.0149475 
0.0728004 0.01 -0.0149475 
0.0735827 0.007 -0.0132238 
0.0735827 0.01 -0.0132238 
0.0735827 0.007 -0.0132238 
0.0735827 0.01 -0.0132238 
0.0741986 0.007 -0.0114338 
0.0741986 0.01 -0.0114338 
0.0741986 0.007 -0.0114338 
0.0741986 0.01 -0.0114338 
0.0746425 0.007 -0.00959367 
0.0746425 0.01 -0.00959367 
0.0746425 0.007 -0.00959367 
0.0746425 0.01 -0.00959367 
0.0749104 0.007 -0.0077198 
0.0749104 0.01 -0.0077198 
0.0749104 0.007 -0.0077198 
0.0749104 0.01 -0.0077198 
0.075 0.007 -0.00582899 
0.075 0.01 -0.00582899 
-0.055 -0.01 0.024171 
-0.075 -0.01 0.024171 
-0.055 -0.01 -0.00582899 
-0.075 -0.01 -0.00582899 
-0.0749104 -0.01 -0.0077198 
-0.0746425 -0.01 -0.00959367 
-0.0741986 -0.01 -0.0114338 
-0.0735827 -0.01 -0.0132238 
-0.0728004 -0.01 -0.0149475 
-0.0718586 -0.01 -0.0165895 
-0.0707658 -0.01 -0.0181351 
-0.0695317 -0.01 -0.0195705 
-0.0681675 -0.01 -0.0208828 
-0.058 -0.01 -0.0256027 
-0.0666854 -0.01 -0.0220602 
-0.0650985 -0.01 -0.0230922 
-0.0634212 -0.01 -0.0239696 
-0.0616685 -0.01 -0.0246845 
-0.059856 -0.01 -0.0252305 
-0.058 -0.01 -0.025829 
0.058 -0.01 -0.025829 
0.058 -0.01 -0.0256027 
0.055 -0.01 -0.00582899 
0.0681675 -0.01 -0.0208828 
0.0695317 -0.01 -0.0195705 
0.059856 -0.01 -0.0252305 
0.0616685 -0.01 -0.0246845 
0.0634212 -0.01 -0.0239696 
0.0650985 -0.01 -0.0230922 
0.0666854 -0.01 -0.0220602 
0.0707658 -0.01 -0.0181351 
0.0718586 -0.01 -0.0165895 
0.0728004 -0.01 -0.0149475 
0.0735827 -0.01 -0.0132238 
0.0741986 -0.01 -0.0114338 
0.0746425 -0.01 -0.00959367 
0.0749104 -0.01 -0.0077198 
0.075 -0.01 -0.00582899 
0.055 -0.01 0.024171 
0.075 -0.01 0.024171 
-0.058 0.007 -0.0256027 
-0.058 0.007 0.014171 
-0.059856 0.007 -0.0252305 
-0.0616685 0.007 -0.0246845 
-0.0634212 0.007 -0.0239696 
-0.0650985 0.007 -0.0230922 
-0.0666854 0.007 -0.0220602 
-0.0681675 0.007 -0.0208828 
-0.0695317 0.007 -0.0195705 
-0.0707658 0.007 -0.0181351 
-0.075 0.007 -0.00582899 
-0.0718586 0.007 -0.0165895 
-0.0728004 0.007 -0.0149475 
-0.0735827 0.007 -0.0132238 
-0.0741986 0.007 -0.0114338 
-0.0746425 0.007 -0.00959367 
-0.0749104 0.007 -0.0077198 
-0.075 0.007 0.014171 
0.058 -0.007 -0.0256027 
0.058 -0.007 0.014171 
0.059856 -0.007 -0.0252305 
0.0616685 -0.007 -0.0246845 
0.0634212 -0.007 -0.0239696 
0.0650985 -0.007 -0.0230922 
0.0666854 -0.007 -0.0220602 
0.0681675 -0.007 -0.0208828 
0.0695317 -0.007 -0.0195705 
0.0707658 -0.007 -0.0181351 
0.075 -0.007 -0.00582899 
0.0718586 -0.007 -0.0165895 
0.0728004 -0.007 -0.0149475 
0.0735827 -0.007 -0.0132238 
0.0741986 -0.007 -0.0114338 
0.0746425 -0.007 -0.00959367 
0.0749104 -0.007 -0.0077198 
0.075 -0.007 0.014171 
-0.058 0.01 -0.0256027 
-0.058 0.007 -0.0256027 
-0.059856 0.01 -0.0252305 
-0.059856 0.007 -0.0252305 
-0.059856 0.01 -0.0252305 
-0.059856 0.007 -0.0252305 
-0.0616685 0.01 -0.0246845 
-0.0616685 0.007 -0.0246845 
-0.0616685 0.01 -0.0246845 
-0.0616685 0.007 -0.0246845 
-0.0634212 0.01 -0.0239696 
-0.0634212 0.007 -0.0239696 
-0.0634212 0.01 -0.0239696 
-0.0634212 0.007 -0.0239696 
-0.0650985 0.01 -0.0230922 
-0.0650985 0.007 -0.0230922 
-0.0650985 0.01 -0.0230922 
-0.0650985 0.007 -0.0230922 
-0.0666854 0.01 -0.0220602 
-0.0666854 0.007 -0.0220602 
-0.0666854 0.01 -0.0220602 
-0.0666854 0.007 -0.0220602 
-0.0681675 0.01 -0.0208828 
-0.0681675 0.007 -0.0208828 
-0.0681675 0.01 -0.0208828 
-0.0681675 0.007 -0.0208828 
-0.0695317 0.01 -0.0195705 
-0.0695317 0.007 -0.0195705 
-0.0695317 0.01 -0.0195705 
-0.0695317 0.007 -0.0195705 
-0.0707658 0.01 -0.0181351 
-0.0707658 0.007 -0.0181351 
-0.0707658 0.01 -0.0181351 
-0.0707658 0.007 -0.0181351 
-0.0718586 0.01 -0.0165895 
-0.0718586 0.007 -0.0165895 
-0.0718586 0.01 -0.0165895 
-0.0718586 0.007 -0.0165895 
-0.0728004 0.01 -0.0149475 
-0.0728004 0.007 -0.0149475 
-0.0728004 0.01 -0.0149475 
-0.0728004 0.007 -0.0149475 
-0.0735827 0.01 -0.0132238 
-0.0735827 0.007 -0.0132238 
-0.0735827 0.01 -0.0132238 
-0.0735827 0.007 -0.0132238 
-0.0741986 0.01 -0.0114338 
-0.0741986 0.007 -0.0114338 
-0.0741986 0.01 -0.0114338 
-0.0741986 0.007 -0.0114338 
-0.0746425 0.01 -0.00959367 
-0.0746425 0.007 -0.00959367 
-0.0746425 0.01 -0.00959367 
-0.0746425 0.007 -0.00959367 
-0.0749104 0.01 -0.0077198 
-0.0749104 0.007 -0.0077198 
-0.0749104 0.01 -0.0077198 
-0.0749104 0.007 -0.0077198 
-0.075 0.01 -0.00582899 
-0.075 0.007 -0.00582899 
-0.075 0.007 -0.00582899 
-0.075 0.007 0.014171 
-0.075 0.01 -0.00582899 
-0.075 0.01 0.024171 
-0.075 -0.01 0.024171 
-0.075 -0.007 0.014171 
-0.075 -0.01 -0.00582899 
-0.075 -0.007 -0.00582899 
-0.055 0.01 -0.00582899 
-0.055 0.01 0.024171 
-0.055 -0.01 -0.00582899 
-0.055 -0.01 0.024171 
0.055 -0.01 -0.00582899 
0.055 -0.01 0.024171 
0.055 0.01 -0.00582899 
0.055 0.01 0.024171 
0.058 -0.01 -0.0256027 
0.058 -0.007 -0.0256027 
0.059856 -0.01 -0.0252305 
0.059856 -0.007 -0.0252305 
0.059856 -0.01 -0.0252305 
0.059856 -0.007 -0.0252305 
0.0616685 -0.01 -0.0246845 
0.0616685 -0.007 -0.0246845 
0.0616685 -0.01 -0.0246845 
0.0616685 -0.007 -0.0246845 
0.0634212 -0.01 -0.0239696 
0.0634212 -0.007 -0.0239696 
0.0634212 -0.01 -0.0239696 
0.0634212 -0.007 -0.0239696 
0.0650985 -0.01 -0.0230922 
0.0650985 -0.007 -0.0230922 
0.0650985 -0.01 -0.0230922 
0.0650985 -0.007 -0.0230922 
0.0666854 -0.01 -0.0220602 
0.0666854 -0.007 -0.0220602 
0.0666854 -0.01 -0.0220602 
0.0666854 -0.007 -0.0220602 
0.0681675 -0.01 -0.0208828 
0.0681675 -0.007 -0.0208828 
0.0681675 -0.01 -0.0208828 
0.0681675 -0.007 -0.0208828 
0.0695317 -0.01 -0.0195705 
0.0695317 -0.007 -0.0195705 
0.0695317 -0.01 -0.0195705 
0.0695317 -0.007 -0.0195705 
0.0707658 -0.01 -0.0181351 
0.0707658 -0.007 -0.0181351 
0.0707658 -0.01 -0.0181351 
0.0707658 -0.007 -0.0181351 
0.0718586 -0.01 -0.0165895 
0.0718586 -0.007 -0.0165895 
0.0718586 -0.01 -0.0165895 
0.0718586 -0.007 -0.0165895 
0.0728004 -0.01 -0.0149475 
0.0728004 -0.007 -0.0149475 
0.0728004 -0.01 -0.0149475 
0.0728004 -0.007 -0.0149475 
0.0735827 -0.01 -0.0132238 
0.0735827 -0.007 -0.0132238 
0.0735827 -0.01 -0.0132238 
0.0735827 -0.007 -0.0132238 
0.0741986 -0.01 -0.0114338 
0.0741986 -0.007 -0.0114338 
0.0741986 -0.01 -0.0114338 
0.0741986 -0.007 -0.0114338 
0.0746425 -0.01 -0.00959367 
0.0746425 -0.007 -0.00959367 
0.0746425 -0.01 -0.00959367 
0.0746425 -0.007 -0.00959367 
0.0749104 -0.01 -0.0077198 
0.0749104 -0.007 -0.0077198 
0.0749104 -0.01 -0.0077198 
0.0749104 -0.007 -0.0077198 
0.075 -0.01 -0.00582899 
0.075 -0.007 -0.00582899 
0.075 -0.007 -0.00582899 
0.075 -0.007 0.014171 
0.075 -0.01 -0.00582899 
0.075 -0.01 0.024171 
0.075 0.007 0.014171 
0.075 0.01 0.024171 
0.075 0.01 -0.00582899 
0.075 0.007 -0.00582899 
0.0635511 0.000388228 0.024171 
0.055 0.01 0.024171 
0.0635 0 0.024171 
0.055 -0.01 0.024171 
0.0635511 -0.000388228 0.024171 
0.063701 -0.00075 0.024171 
0.0639393 -0.00106066 0.024171 
0.06425 -0.00129904 0.024171 
0.0646118 -0.00144889 0.024171 
0.065 -0.0015 0.024171 
0.075 -0.01 0.024171 
0.0653882 -0.00144889 0.024171 
0.06575 -0.00129904 0.024171 
0.0660607 -0.00106066 0.024171 
0.066299 -0.00075 0.024171 
0.0664489 -0.000388228 0.024171 
0.0665 0 0.024171 
0.075 0.01 0.024171 
0.0664489 0.000388228 0.024171 
0.066299 0.00075 0.024171 
0.0660607 0.00106066 0.024171 
0.06575 0.00129904 0.024171 
0.0653882 0.00144889 0.024171 
0.065 0.0015 0.024171 
0.0646118 0.00144889 0.024171 
0.06425 0.00129904 0.024171 
0.0639393 0.00106066 0.024171 
0.063701 0.00075 0.024171 
-0.055 -0.01 -0.00582899 
0.055 -0.01 -0.00582899 
-0.055 0.01 -0.00582899 
0.055 0.01 -0.00582899 
-0.0664489 0.000388228 0.024171 
-0.075 0.01 0.024171 
-0.0665 0 0.024171 
-0.075 -0.01 0.024171 
-0.0664489 -0.000388228 0.024171 
-0.066299 -0.00075 0.024171 
-0.0660607 -0.00106066 0.024171 
-0.06575 -0.00129904 0.024171 
-0.0653882 -0.00144889 0.024171 
-0.065 -0.0015 0.024171 
-0.055 -0.01 0.024171 
-0.0646118 -0.00144889 0.024171 
-0.06425 -0.00129904 0.024171 
-0.0639393 -0.00106066 0.024171 
-0.063701 -0.00075 0.024171 
-0.0635511 -0.000388228 0.024171 
-0.0635 0 0.024171 
-0.055 0.01 0.024171 
-0.0635511 0.000388228 0.024171 
-0.063701 0.00075 0.024171 
-0.0639393 0.00106066 0.024171 
-0.06425 0.00129904 0.024171 
-0.0646118 0.00144889 0.024171 
-0.065 0.0015 0.024171 
-0.0653882 0.00144889 0.024171 
-0.06575 0.00129904 0.024171 
-0.0660607 0.00106066 0.024171 
-0.066299 0.00075 0.024171 
0.058 -0.01 -0.025829 
-0.058 -0.01 -0.025829 
0.058 0.01 -0.025829 
-0.058 0.01 -0.025829 
3 0 1 2 
3 2 1 3 
3 4 5 6 
3 6 5 7 
3 8 9 10 
3 10 9 11 
3 12 13 14 
3 14 13 15 
3 16 17 18 
3 18 17 19 
3 20 21 22 
3 22 21 23 
3 24 25 26 
3 26 25 27 
3 28 29 30 
3 30 29 31 
3 32 33 34 
3 34 33 35 
3 36 37 38 
3 38 37 39 
3 40 41 42 
3 42 41 43 
3 44 45 46 
3 46 45 47 
3 48 49 50 
3 50 49 51 
3 52 53 54 
3 54 53 55 
3 56 57 58 
3 58 57 59 
3 60 61 62 
3 62 61 63 
3 64 65 66 
3 66 65 67 
3 68 69 70 
3 70 69 71 
3 72 73 74 
3 74 73 75 
3 76 77 78 
3 78 77 79 
3 80 81 82 
3 82 81 83 
3 84 85 86 
3 86 85 87 
3 88 89 90 
3 90 89 91 
3 92 93 94 
3 94 93 95 
3 96 97 98 
3 98 97 99 
3 98 99 100 
3 100 99 101 
3 100 101 102 
3 102 101 103 
3 102 103 104 
3 104 103 105 
3 104 105 106 
3 106 105 107 
3 106 107 108 
3 108 107 109 
3 108 109 110 
3 97 96 111 
3 111 96 112 
3 111 112 113 
3 113 112 114 
3 113 114 115 
3 115 114 116 
3 115 116 117 
3 117 116 118 
3 117 118 119 
3 120 121 122 
3 122 121 123 
3 124 125 126 
3 126 125 127 
3 128 129 130 
3 130 129 131 
3 132 133 134 
3 134 133 135 
3 136 137 138 
3 138 137 139 
3 140 141 142 
3 142 141 143 
3 144 145 146 
3 146 145 147 
3 148 149 150 
3 150 149 151 
3 152 153 154 
3 154 153 155 
3 156 157 158 
3 158 157 159 
3 160 161 162 
3 162 161 163 
3 164 165 166 
3 166 165 167 
3 168 169 170 
3 170 169 171 
3 172 173 174 
3 174 173 175 
3 176 177 178 
3 178 177 179 
3 180 181 182 
3 182 181 183 
3 184 185 186 
3 186 185 187 
3 188 189 190 
3 190 189 191 
3 192 193 194 
3 194 193 195 
3 196 197 198 
3 198 197 199 
3 200 201 202 
3 202 201 203 
3 204 205 206 
3 206 205 207 
3 208 209 210 
3 210 209 211 
3 212 213 214 
3 214 213 215 
3 216 217 218 
3 218 217 219 
3 218 219 220 
3 220 219 221 
3 220 221 222 
3 222 221 223 
3 222 223 224 
3 224 223 225 
3 224 225 226 
3 226 225 227 
3 226 227 228 
3 228 227 229 
3 228 229 230 
3 217 216 231 
3 231 216 232 
3 231 232 233 
3 233 232 234 
3 233 234 235 
3 235 234 236 
3 235 236 237 
3 237 236 238 
3 237 238 239 
3 240 241 242 
3 242 241 243 
3 242 243 244 
3 244 243 245 
3 246 247 244 
3 244 247 242 
3 248 249 250 
3 250 249 251 
3 252 253 254 
3 254 253 255 
3 254 255 256 
3 256 257 254 
3 254 257 258 
3 254 258 259 
3 259 260 254 
3 254 260 261 
3 254 261 262 
3 262 261 263 
3 262 263 264 
3 264 265 262 
3 262 265 266 
3 262 266 267 
3 267 268 262 
3 262 269 254 
3 270 271 272 
3 272 271 273 
3 274 275 276 
3 276 275 277 
3 278 279 280 
3 280 279 281 
3 282 283 284 
3 284 283 285 
3 286 287 288 
3 288 287 289 
3 290 291 292 
3 292 291 293 
3 294 295 296 
3 296 295 297 
3 298 299 300 
3 300 299 301 
3 302 303 304 
3 304 303 305 
3 306 307 308 
3 308 307 309 
3 310 311 312 
3 312 311 313 
3 314 315 316 
3 316 315 317 
3 318 319 320 
3 320 319 321 
3 322 323 324 
3 324 323 325 
3 326 327 328 
3 328 327 329 
3 330 331 332 
3 332 331 333 
3 332 333 334 
3 334 335 332 
3 332 335 336 
3 332 336 337 
3 337 336 338 
3 337 338 339 
3 339 340 337 
3 337 340 341 
3 337 341 342 
3 342 343 337 
3 337 343 344 
3 337 344 345 
3 345 346 337 
3 337 346 347 
3 347 346 348 
3 337 349 332 
3 332 349 350 
3 332 350 351 
3 351 350 352 
3 353 354 349 
3 349 354 355 
3 349 355 356 
3 356 357 349 
3 349 357 358 
3 349 358 359 
3 359 360 349 
3 349 360 361 
3 349 361 362 
3 362 363 349 
3 349 363 364 
3 349 364 350 
3 350 364 365 
3 350 365 366 
3 366 367 350 
3 350 367 368 
3 350 368 369 
3 370 371 372 
3 372 371 373 
3 372 373 374 
3 374 373 375 
3 376 377 374 
3 374 377 372 
3 378 379 380 
3 380 379 381 
3 382 383 384 
3 384 383 385 
3 384 385 386 
3 386 387 384 
3 384 387 388 
3 384 388 389 
3 389 390 384 
3 384 390 391 
3 384 391 392 
3 392 391 393 
3 392 393 394 
3 394 395 392 
3 392 395 396 
3 392 396 397 
3 397 398 392 
3 392 399 384 
3 400 401 402 
3 402 401 403 
3 404 405 406 
3 406 405 407 
3 408 409 410 
3 410 409 411 
3 412 413 414 
3 414 413 415 
3 416 417 418 
3 418 417 419 
3 420 421 422 
3 422 421 423 
3 424 425 426 
3 426 425 427 
3 428 429 430 
3 430 429 431 
3 432 433 434 
3 434 433 435 
3 436 437 438 
3 438 437 439 
3 440 441 442 
3 442 441 443 
3 444 445 446 
3 446 445 447 
3 448 449 450 
3 450 449 451 
3 452 453 454 
3 454 453 455 
3 456 457 458 
3 458 457 459 
3 460 461 462 
3 462 461 463 
3 462 463 464 
3 464 465 462 
3 462 465 466 
3 462 466 467 
3 467 468 462 
3 462 468 469 
3 462 469 470 
3 470 471 462 
3 462 471 472 
3 462 472 473 
3 473 472 474 
3 473 474 475 
3 475 476 473 
3 473 476 477 
3 473 477 478 
3 479 480 473 
3 473 480 481 
3 473 481 462 
3 462 481 482 
3 482 481 483 
3 482 483 484 
3 485 486 481 
3 481 486 487 
3 481 487 488 
3 488 489 481 
3 481 489 483 
3 484 490 482 
3 482 490 491 
3 482 491 492 
3 492 493 482 
3 482 493 494 
3 482 494 495 
3 495 496 482 
3 482 496 497 
3 482 497 498 
3 498 497 499 
3 500 501 502 
3 502 501 503 
3 503 501 504 
3 504 501 505 
3 505 501 506 
3 506 501 507 
3 507 501 508 
3 508 501 509 
3 509 501 510 
3 509 510 511 
3 511 510 512 
3 512 510 513 
3 513 510 514 
3 514 510 515 
3 515 510 516 
3 501 517 510 
3 518 519 520 
3 520 519 521 
3 521 519 522 
3 522 519 523 
3 523 519 524 
3 524 519 525 
3 525 519 526 
3 526 519 527 
3 527 519 528 
3 527 528 529 
3 529 528 530 
3 530 528 531 
3 531 528 532 
3 532 528 533 
3 533 528 534 
3 519 535 528 
3 536 537 538 
3 538 537 539 
3 540 541 542 
3 542 541 543 
3 544 545 546 
3 546 545 547 
3 548 549 550 
3 550 549 551 
3 552 553 554 
3 554 553 555 
3 556 557 558 
3 558 557 559 
3 560 561 562 
3 562 561 563 
3 564 565 566 
3 566 565 567 
3 568 569 570 
3 570 569 571 
3 572 573 574 
3 574 573 575 
3 576 577 578 
3 578 577 579 
3 580 581 582 
3 582 581 583 
3 584 585 586 
3 586 585 587 
3 588 589 590 
3 590 589 591 
3 592 593 594 
3 594 593 595 
3 596 597 598 
3 598 597 599 
3 599 597 600 
3 600 597 601 
3 600 601 602 
3 602 601 603 
3 604 605 606 
3 606 605 607 
3 608 609 610 
3 610 609 611 
3 612 613 614 
3 614 613 615 
3 616 617 618 
3 618 617 619 
3 620 621 622 
3 622 621 623 
3 624 625 626 
3 626 625 627 
3 628 629 630 
3 630 629 631 
3 632 633 634 
3 634 633 635 
3 636 637 638 
3 638 637 639 
3 640 641 642 
3 642 641 643 
3 644 645 646 
3 646 645 647 
3 648 649 650 
3 650 649 651 
3 652 653 654 
3 654 653 655 
3 656 657 658 
3 658 657 659 
3 660 661 662 
3 662 661 663 
3 664 665 666 
3 666 665 667 
3 668 669 670 
3 670 669 671 
3 672 673 674 
3 674 673 675 
3 675 673 676 
3 675 676 677 
3 677 676 678 
3 678 676 679 
3 680 681 682 
3 682 681 683 
3 682 683 684 
3 684 683 685 
3 685 683 686 
3 686 683 687 
3 687 683 688 
3 688 683 689 
3 689 683 690 
3 689 690 691 
3 691 690 692 
3 692 690 693 
3 693 690 694 
3 694 690 695 
3 695 690 696 
3 696 690 697 
3 696 697 698 
3 698 697 699 
3 699 697 700 
3 700 697 701 
3 701 697 702 
3 702 697 703 
3 703 697 681 
3 703 681 704 
3 704 681 705 
3 705 681 706 
3 706 681 707 
3 707 681 680 
3 708 709 710 
3 710 709 711 
3 712 713 714 
3 714 713 715 
3 714 715 716 
3 716 715 717 
3 717 715 718 
3 718 715 719 
3 719 715 720 
3 720 715 721 
3 721 715 722 
3 721 722 723 
3 723 722 724 
3 724 722 725 
3 725 722 726 
3 726 722 727 
3 727 722 728 
3 728 722 729 
3 728 729 730 
3 730 729 731 
3 731 729 732 
3 732 729 733 
3 733 729 734 
3 734 729 735 
3 735 729 713 
3 735 713 736 
3 736 713 737 
3 737 713 738 
3 738 713 739 
3 739 713 712 
3 740 741 742 
3 742 741 743 
